<?xml version="1.0" standalone="no"?>
<!DOCTYPE svg PUBLIC "-//W3C//DTD SVG 20010904//EN"
 "http://www.w3.org/TR/2001/REC-SVG-20010904/DTD/svg10.dtd">
<svg version="1.0" xmlns="http://www.w3.org/2000/svg"
 width="300.000000pt" height="300.000000pt" viewBox="0 0 300.000000 300.000000"
 preserveAspectRatio="xMidYMid meet">
<metadata>
Created by potrace 1.14, written by Peter Selinger 2001-2017
</metadata>
<g transform="translate(0.000000,300.000000) scale(0.100000,-0.100000)"
fill="#000000" stroke="none">
<path d="M2288 2135 c-1 -1 -32 -5 -68 -7 -123 -9 -201 -63 -241 -167 -29 -76
-33 -286 -6 -373 30 -98 97 -156 203 -175 71 -13 211 -7 281 12 32 9 64 17 71
19 8 1 17 7 20 13 4 7 7 92 7 190 l0 178 -135 0 -134 0 -1 -78 c-1 -87 2 -96
30 -94 24 2 34 -43 13 -60 -11 -10 -82 -17 -124 -14 -12 1 -19 296 -8 333 8
28 69 41 169 35 50 -3 97 -7 105 -9 13 -3 28 42 44 126 6 33 4 37 -19 46 -14
5 -56 13 -93 16 -37 3 -77 7 -89 9 -12 2 -23 2 -25 0z"/>
<path d="M169 2117 c-1 -1 -2 -41 -3 -89 l-1 -88 45 0 46 0 -1 -160 c0 -95 -4
-163 -11 -170 -5 -5 -38 -11 -72 -12 l-63 -2 6 -46 c3 -25 8 -54 10 -65 2 -11
4 -31 4 -44 l1 -23 118 3 c139 5 174 20 209 88 21 41 22 55 23 326 l0 282
-155 1 c-85 0 -156 -1 -156 -1z"/>
<path d="M621 1871 c-34 -135 -64 -253 -67 -261 -2 -8 -12 -49 -23 -90 -12
-41 -21 -81 -21 -87 0 -10 29 -13 115 -13 l114 0 10 38 c6 20 11 45 11 55 0
15 11 17 93 17 l94 0 11 -39 c7 -21 12 -46 12 -55 0 -14 16 -16 120 -16 66 0
120 2 120 5 0 3 -9 38 -20 79 -12 42 -23 83 -25 93 -2 10 -16 63 -30 118 -14
55 -39 154 -56 220 -17 66 -35 134 -40 152 l-10 31 -172 0 -172 -1 -64 -246z
m267 -73 l20 -88 -49 0 c-27 0 -49 4 -49 10 0 28 45 179 51 173 4 -4 17 -47
27 -95z"/>
<path d="M1254 1768 l0 -348 112 0 112 0 -2 139 c0 77 0 139 0 138 1 -1 43
-64 94 -140 l91 -138 107 3 106 3 0 345 0 345 -112 2 -112 2 -1 -147 c-1 -81
-4 -138 -6 -127 -2 11 -43 76 -91 145 l-87 125 -106 1 -105 0 0 -348z"/>
<path d="M2659 2106 c-1 -6 -2 -163 -3 -348 l-1 -338 111 0 112 0 -2 348 -1
347 -107 1 c-75 1 -108 -2 -109 -10z"/>
<path d="M539 1367 c-1 -1 -2 -159 -3 -350 l-1 -349 220 4 c219 3 220 3 278
32 72 35 111 86 128 164 27 130 12 317 -30 385 -32 53 -93 89 -173 105 -39 8
-415 16 -419 9z m380 -196 c17 -17 19 -33 18 -156 -2 -163 -3 -165 -109 -165
l-68 0 0 170 0 170 70 0 c56 0 74 -4 89 -19z"/>
<path d="M1257 1362 c-3 -6 -1 -650 2 -679 1 -10 57 -13 245 -13 l245 0 3 33
c2 17 1 58 0 90 -4 53 -6 58 -25 56 -12 0 -73 -1 -134 0 l-113 1 0 40 0 40 48
1 c26 1 75 0 110 0 l62 -2 1 36 c0 19 1 53 1 75 0 22 -1 44 -1 48 -1 4 -50 7
-111 7 l-110 -1 0 48 0 48 119 0 119 0 14 78 c8 42 12 82 10 89 -3 9 -67 12
-243 12 -131 0 -240 -4 -242 -7z"/>
<path d="M1793 1357 c2 -7 42 -164 88 -349 l84 -338 162 0 162 0 10 38 c16 61
92 365 96 387 3 11 18 75 35 142 16 68 30 125 30 128 0 7 -214 5 -226 -3 -6
-4 -30 -99 -54 -212 -23 -113 -46 -209 -51 -214 -4 -5 -10 2 -13 15 -3 13 -12
58 -21 99 -9 41 -19 84 -21 95 -2 11 -13 62 -24 114 -11 52 -20 98 -20 102 0
4 -54 8 -121 8 -89 0 -120 -3 -116 -12z"/>
</g>
</svg>
