<?xml version="1.0"?>
<svg xmlns="http://www.w3.org/2000/svg" xmlns:xlink="http://www.w3.org/1999/xlink" xmlns:svgjs="http://svgjs.com/svgjs" version="1.1" width="512" height="512" x="0" y="0" viewBox="0 0 330 330" style="enable-background:new 0 0 512 512" xml:space="preserve" class=""><g>
<g xmlns="http://www.w3.org/2000/svg" id="XMLID_225_">
	<path id="XMLID_226_" d="M15,120h300c8.284,0,15-6.716,15-15s-6.716-15-15-15H15c-8.284,0-15,6.716-15,15S6.716,120,15,120z" fill="#889ba8" data-original="#000000" style=""/>
	<path id="XMLID_227_" d="M315,150H15c-8.284,0-15,6.716-15,15s6.716,15,15,15h300c8.284,0,15-6.716,15-15S323.284,150,315,150z" fill="#889ba8" data-original="#000000" style=""/>
	<path id="XMLID_228_" d="M315,210H15c-8.284,0-15,6.716-15,15s6.716,15,15,15h300c8.284,0,15-6.716,15-15S323.284,210,315,210z" fill="#889ba8" data-original="#000000" style=""/>
</g>
<g xmlns="http://www.w3.org/2000/svg">
</g>
<g xmlns="http://www.w3.org/2000/svg">
</g>
<g xmlns="http://www.w3.org/2000/svg">
</g>
<g xmlns="http://www.w3.org/2000/svg">
</g>
<g xmlns="http://www.w3.org/2000/svg">
</g>
<g xmlns="http://www.w3.org/2000/svg">
</g>
<g xmlns="http://www.w3.org/2000/svg">
</g>
<g xmlns="http://www.w3.org/2000/svg">
</g>
<g xmlns="http://www.w3.org/2000/svg">
</g>
<g xmlns="http://www.w3.org/2000/svg">
</g>
<g xmlns="http://www.w3.org/2000/svg">
</g>
<g xmlns="http://www.w3.org/2000/svg">
</g>
<g xmlns="http://www.w3.org/2000/svg">
</g>
<g xmlns="http://www.w3.org/2000/svg">
</g>
<g xmlns="http://www.w3.org/2000/svg">
</g>
</g></svg>
